Coordinates
version=1
nRows=17
nColumns=40
inDegrees=yes

Units are S.I. units (second, meters, Newtons, ...)
If the header above contains a line with 'inDegrees', this indicates whether rotational values are in degrees (yes) or radians (no).

endheader
time	pelvis_tilt	pelvis_list	pelvis_rotation	pelvis_tx	pelvis_ty	pelvis_tz	hip_flexion_r	hip_adduction_r	hip_rotation_r	knee_angle_r	knee_angle_r_beta	ankle_angle_r	subtalar_angle_r	mtp_angle_r	hip_flexion_l	hip_adduction_l	hip_rotation_l	knee_angle_l	knee_angle_l_beta	ankle_angle_l	subtalar_angle_l	mtp_angle_l	lumbar_extension	lumbar_bending	lumbar_rotation	arm_flex_r	arm_add_r	arm_rot_r	elbow_flex_r	pro_sup_r	wrist_flex_r	wrist_dev_r	arm_flex_l	arm_add_l	arm_rot_l	elbow_flex_l	pro_sup_l	wrist_flex_l	wrist_dev_l
     10.41700000	     29.37532226	     -2.08130453	     -0.19734931	      0.01871439	      1.34123735	     -0.00491860	     33.75028175	     -7.46636861	     -5.49067670	     72.34013830	      1.26257359	     -5.47880282	    -22.16406419	      0.00000000	     10.32066469	     -4.37495466	      5.66935635	     70.02663106	      1.22219528	    -22.26470765	    -29.27345531	      0.00000000	    -78.90982682	      7.31591400	      3.88767767	     41.45640431	     -7.77969911	    -22.42007993	     48.44401004	     50.19631822	      0.00000000	      0.00000000	     47.25321795	     12.59593916	    -22.88772348	     48.75248899	     40.91226073	      0.00000000	      0.00000000
     10.43300000	     29.37710719	     -1.63017242	     -0.17204398	      0.01859941	      1.34119938	     -0.00487664	     31.65646024	     -7.68063276	     -5.52395823	     68.55314562	      1.19647810	     -5.75103391	    -21.95347874	      0.00000000	     11.89994122	     -3.77221313	      6.06946886	     73.60179433	      1.28459365	    -21.93718644	    -29.49127161	      0.00000000	    -78.84587737	      7.13255394	      3.44392256	     41.38003915	     -7.66451769	    -22.59087548	     48.47780972	     50.19101291	      0.00000000	      0.00000000	     47.27202114	     12.52351579	    -22.77912288	     48.69425758	     40.94680069	      0.00000000	      0.00000000
     10.45000000	     29.44485605	     -1.38980320	      0.31066959	      0.01848283	      1.34106226	     -0.00521153	     29.21545654	     -7.84274918	     -6.14543249	     64.73275891	      1.12979978	     -6.19408202	    -22.20563845	      0.00000000	     13.61356790	     -3.26593788	      6.96630941	     77.17526858	      1.34696254	    -21.85555355	    -29.60970287	      0.00000000	    -78.83918170	      7.39804324	      3.15068809	     41.26270732	     -7.61710350	    -22.79297484	     48.45784221	     50.36921947	      0.00000000	      0.00000000	     47.26661071	     12.53730516	    -22.67964365	     48.67669403	     40.96803883	      0.00000000	      0.00000000
     10.46700000	     29.45338650	     -0.85307155	      0.32384543	      0.01837271	      1.34081465	     -0.00511479	     26.86763660	     -8.03106456	     -6.11628892	     60.96268646	      1.06399960	     -6.89700483	    -21.82388042	      0.00000000	     15.33078056	     -2.55822281	      7.18869287	     80.54017746	      1.40569128	    -21.60066772	    -29.85447069	      0.00000000	    -78.73697217	      7.14577196	      2.63084416	     41.10137246	     -7.56056544	    -22.97712622	     48.46956898	     50.40707266	      0.00000000	      0.00000000	     47.20701873	     12.49809739	    -22.52664695	     48.68045079	     41.00786247	      0.00000000	      0.00000000
     10.48300000	     29.43880794	     -0.35789193	      0.47808759	      0.01823389	      1.34046202	     -0.00504424	     24.32976624	     -8.20372601	     -6.33655170	     57.10898489	      0.99673982	     -7.66691003	    -21.56439643	      0.00000000	     17.19655898	     -1.87857015	      7.50719106	     83.82657181	      1.46304968	    -21.35052693	    -29.93843766	      0.00000000	    -78.61254215	      7.00623331	      2.09037899	     40.89798573	     -7.50690482	    -23.09144751	     48.49996002	     50.44427993	      0.00000000	      0.00000000	     47.13631950	     12.46037328	    -22.37651420	     48.72800040	     41.04259242	      0.00000000	      0.00000000
     10.50000000	     29.41709981	      0.07223114	      0.76564703	      0.01816315	      1.33995334	     -0.00525665	     21.72730129	     -8.31143444	     -6.69849082	     53.37485124	      0.93156689	     -8.52118090	    -21.46220048	      0.00000000	     19.16482100	     -1.15924170	      7.97745030	     86.98562040	      1.51818548	    -20.98691834	    -29.77207213	      0.00000000	    -78.47457140	      7.02111167	      1.60008050	     40.71158749	     -7.50768321	    -23.16977941	     48.47069768	     50.47608880	      0.00000000	      0.00000000	     47.03421558	     12.44459124	    -22.23080179	     48.76417335	     41.07896950	      0.00000000	      0.00000000
     10.51700000	     29.32250843	      0.55218564	      0.98123531	      0.01803191	      1.33930967	     -0.00529165	     19.16030873	     -8.40129452	     -7.03510060	     49.72350161	      0.86783882	     -9.45830826	    -21.35241864	      0.00000000	     21.26921675	     -0.38371744	      8.27953589	     89.92090490	      1.56941586	    -20.67824950	    -29.66549906	      0.00000000	    -78.29159965	      6.92469483	      1.05012745	     40.52673490	     -7.49816299	    -23.18718108	     48.45979869	     50.49584774	      0.00000000	      0.00000000	     46.99561262	     12.40097501	    -22.11998756	     48.76567582	     41.11603255	      0.00000000	      0.00000000
     10.53300000	     29.27611184	      0.91101896	      1.42224596	      0.01791723	      1.33867437	     -0.00550233	     16.39341795	     -8.37118151	     -7.75217341	     46.09759705	      0.80455485	    -10.50660364	    -21.63648047	      0.00000000	     23.42459616	      0.36552282	      8.78985083	     92.68831380	      1.61771625	    -20.35924990	    -29.39722516	      0.00000000	    -78.16102292	      7.05704724	      0.53782801	     40.36913496	     -7.49223712	    -23.14214119	     48.38750357	     50.51552974	      0.00000000	      0.00000000	     46.95083668	     12.34745747	    -22.02812719	     48.77979985	     41.16174598	      0.00000000	      0.00000000
     10.55000000	     29.05404753	      1.48325106	      1.43972421	      0.01782119	      1.33770948	     -0.00535830	     14.09762706	     -8.48212929	     -7.88394741	     42.85445460	      0.74795133	    -11.71438440	    -21.26512019	      0.00000000	     25.72562917	      1.19849778	      8.68770791	     95.15272280	      1.66072831	    -20.02142376	    -29.41921737	      0.00000000	    -77.85259257	      6.72997299	     -0.08714169	     40.16486376	     -7.51535191	    -23.09929751	     48.39639501	     50.49634225	      0.00000000	      0.00000000	     46.90272729	     12.30276377	    -21.91296272	     48.78421417	     41.21110804	      0.00000000	      0.00000000
     10.56700000	     28.89788263	      1.90965542	      1.66547262	      0.01773562	      1.33683017	     -0.00543861	     11.72033367	     -8.49186867	     -8.38673429	     39.77839999	      0.69426405	    -13.18739914	    -21.13133880	      0.00000000	     27.99900890	      1.98245928	      8.79370451	     97.34562545	      1.69900168	    -19.52390726	    -29.27652913	      0.00000000	    -77.62665135	      6.64541763	     -0.62132627	     40.00611157	     -7.60154284	    -22.98081886	     48.34795173	     50.45326763	      0.00000000	      0.00000000	     46.81068638	     12.25587843	    -21.79533622	     48.89816457	     41.26107801	      0.00000000	      0.00000000
     10.58300000	     28.70965907	      2.34452074	      1.83778854	      0.01762694	      1.33588136	     -0.00534425	      9.47839544	     -8.48361177	     -8.83104773	     36.96121845	      0.64509496	    -14.77864938	    -20.95007161	      0.00000000	     30.32449851	      2.72663249	      8.74642371	     99.26757071	      1.73254595	    -18.94757528	    -29.10362340	      0.00000000	    -77.37535211	      6.48232548	     -1.16830295	     39.85957809	     -7.69207624	    -22.81508825	     48.28843654	     50.38539873	      0.00000000	      0.00000000	     46.70586631	     12.24011458	    -21.68132938	     49.03199959	     41.30860820	      0.00000000	      0.00000000
     10.60000000	     28.54753404	      2.75489009	      1.93178954	      0.01741989	      1.33496050	     -0.00524645	      7.47656219	     -8.49382958	     -9.15829071	     34.66959526	      0.60509859	    -16.28894915	    -20.72666952	      0.00000000	     32.57695410	      3.43209691	      8.59279629	    100.91448703	      1.76129006	    -18.47536063	    -28.87892972	      0.00000000	    -77.15301700	      6.28949191	     -1.66919323	     39.70696836	     -7.78369629	    -22.65842424	     48.28663453	     50.29629278	      0.00000000	      0.00000000	     46.59811446	     12.23684231	    -21.61947388	     49.15175225	     41.35356489	      0.00000000	      0.00000000
     10.61700000	     28.48910498	      3.10258252	      2.05377126	      0.01712572	      1.33421105	     -0.00508886	      5.61713802	     -8.47581175	     -9.42718242	     32.96581980	      0.57536210	    -17.78770292	    -20.65987627	      0.00000000	     34.68018205	      4.07809100	      8.42833313	    102.32670188	      1.78593786	    -18.16136144	    -28.51723624	      0.00000000	    -77.01887338	      6.14970797	     -2.10804174	     39.54091674	     -7.88981216	    -22.48279496	     48.25901708	     50.17434931	      0.00000000	      0.00000000	     46.47236917	     12.29199444	    -21.60913951	     49.26027737	     41.40909329	      0.00000000	      0.00000000
     10.63300000	     28.51360835	      3.37126278	      2.18006218	      0.01669677	      1.33365132	     -0.00489073	      3.88621119	     -8.40475340	     -9.65343790	     31.75898615	      0.55429888	    -19.24131270	    -20.76573216	      0.00000000	     36.64229694	      4.65038084	      8.27449462	    103.47836916	      1.80603825	    -17.87051827	    -28.02377258	      0.00000000	    -76.97909904	      6.05624813	     -2.45481539	     39.40848561	     -8.00605595	    -22.27762891	     48.22675038	     49.85746084	      0.00000000	      0.00000000	     46.37019196	     12.38192345	    -21.68434987	     49.37634117	     41.56602738	      0.00000000	      0.00000000
     10.65000000	     28.45854887	      3.61184802	      2.04800967	      0.01635402	      1.33304872	     -0.00446757	      2.58952588	     -8.36583727	     -9.59073365	     31.18750117	      0.54432458	    -19.82756611	    -20.50637678	      0.00000000	     38.51282126	      5.01738013	      7.81171768	    104.21766563	      1.81894140	    -17.83576461	    -27.83803879	      0.00000000	    -76.86797743	      5.75178107	     -2.70490286	     39.26114978	     -8.07997380	    -22.21822785	     48.25644436	     49.81151801	      0.00000000	      0.00000000	     46.27271373	     12.47598719	    -21.69777216	     49.41420138	     41.58924538	      0.00000000	      0.00000000
     10.66700000	     28.46456341	      3.71392374	      2.03511651	      0.01592220	      1.33271750	     -0.00436114	      1.46285945	     -8.34445859	    -10.00841216	     30.96836824	      0.54049999	    -20.99491013	    -20.08521218	      0.00000000	     40.13571920	      5.33592474	      7.51305263	    104.59709258	      1.82556365	    -17.74844570	    -27.58966831	      0.00000000	    -76.85519323	      5.64073993	     -2.85536047	     39.12140999	     -8.15259758	    -22.11694214	     48.37120966	     49.72336192	      0.00000000	      0.00000000	     46.13475452	     12.60216783	    -21.76224798	     49.59159019	     41.61769668	      0.00000000	      0.00000000
     10.68300000	     28.60100629	      3.67256920	      2.09042878	      0.01552065	      1.33258460	     -0.00436323	      0.46481694	     -8.22427310	    -10.57716086	     31.36371481	      0.54740009	    -21.63711916	    -19.89869550	      0.00000000	     41.42988514	      5.57132299	      7.34497180	    104.62174627	      1.82599394	    -17.76919887	    -27.29216299	      0.00000000	    -76.97027134	      5.66347880	     -2.87722422	     39.01209075	     -8.18920416	    -22.06199763	     48.43198705	     49.62550446	      0.00000000	      0.00000000	     46.01558545	     12.71966631	    -21.81908776	     49.74862798	     41.65607759	      0.00000000	      0.00000000
